<svg enable-background="new 0 0 617.6 1010" viewBox="0 0 617.6 1010" xmlns="http://www.w3.org/2000/svg"><g fill="#fff"><path d="m308.8 0c-170.3 0-308.8 138.6-308.8 308.9 0 66.7 21 130.2 59.9 182.6l14.3 21.2c44.5 65.3 105.5 154.8 102 217.4l-1.2 22.7 245-.1 21.7-.4-.2-21.6c0-.7.5-71.9 104.9-222.7l9.5-13.9c9.2-12.1 17.6-25.2 24.8-38.5 4.6-8.4 8.7-16.9 12.5-25.9 16.3-38.2 24.5-78.8 24.5-120.7-.1-170.4-138.6-309-308.9-309zm244.7 413c-3.2 7.7-6.6 14.8-10.5 22-6.4 11.6-13.6 22.8-21.8 33.9l-10.2 14.7c-82 118.5-104.4 191.8-110.4 226.1l-182.1.1c-7.6-72.8-65.4-157.7-108.8-221.4l-14.5-21.4c-34.1-46-52.3-100.7-52.3-158.1 0-146.6 119.3-265.8 265.9-265.8 146.5 0 265.8 119.2 265.8 265.8 0 36-7.1 71-21.1 104.1z"/><path d="m266.6 967h84.4v43h-84.4z"/><path d="m224.6 882.2h168.4v43h-168.4z"/><path d="m189.6 797.4h238.4v43h-238.4z"/></g></svg>