<svg viewBox="0 0 731.16 594.02" xmlns="http://www.w3.org/2000/svg"><g fill="#e5e5e5"><path d="m294.24 344.23c-12.66 0-23.56-2-29.15-5.52a6.29 6.29 0 1 1 6.63-10.71c7.84 4.87 43.47 6.71 67-6.44 12.14-6.78 18.27-16.21 18.22-28 0-.13 0-.26 0-.39a3.77 3.77 0 0 0 -1.15-3c-8.19-8.74-44-9-70.16-9.26-18.77-.16-35-.29-44.34-2.81a6.29 6.29 0 1 1 3.26-12.14c7.81 2.1 24 2.23 41.19 2.38 39.43.33 68.2 1.47 79.22 13.23a16.32 16.32 0 0 1 4.54 12.14c0 16.42-8.52 29.86-24.65 38.87-14.72 8.21-34.16 11.65-50.61 11.65z"/><path d="m267.38 418.3a6.29 6.29 0 0 1 -6.28-6.3v-104.46a6.29 6.29 0 1 1 12.57 0v104.46a6.29 6.29 0 0 1 -6.29 6.3z"/><path d="m722.92 374.65h-7.12a6.29 6.29 0 1 1 0-12.57h7.12a6.29 6.29 0 0 1 0 12.57z"/><path d="m658.67 374.67a6.29 6.29 0 0 1 0-12.57h28.47a6.29 6.29 0 1 1 0 12.57h-28.46z"/><path d="m575.14 374.83a6.29 6.29 0 0 1 0-12.57q26.4-.11 52.81-.13a6.29 6.29 0 0 1 0 12.57q-26.4 0-52.78.13z"/><path d="m467.28 375.43c-68.34 0-137.47-4.24-201.16-35.89a6.29 6.29 0 1 1 5.59-11.26c72.69 36.12 154.18 35.2 233 34.29 13.46-.15 27.38-.3 41-.28a6.29 6.29 0 0 1 0 12.57c-13.52 0-27.41.13-40.83.28-12.52.14-25.05.29-37.6.29z"/><path d="m208.93 592a5 5 0 0 1 -5-5l-3.68-535.3-75.74 345.57a5 5 0 0 1 -9.8-.3l-32.71-209.73-70.22 332.82a5 5 0 1 1 -9.78-2.06l75.85-359.47a4.94 4.94 0 0 1 5-4 5 5 0 0 1 4.79 4.25l32.82 210.31 79.61-363.09a5 5 0 0 1 9.86 1l4 579.93a5 5 0 0 1 -5 5.07z"/><path d="m294.24 342.23a91.61 91.61 0 0 1 -16.12-1.23 36.65 36.65 0 0 1 -11.25-3.51 4.65 4.65 0 0 1 -2.75-3.91 4.34 4.34 0 0 1 2.65-4.13c2.53-1 4.93 1 7.26 1.82 5.84 1.95 12.33 2.34 18.44 2.44a112.89 112.89 0 0 0 25.34-2.42c16.31-3.47 35.75-11.86 40.18-29.67a32.46 32.46 0 0 0 .9-6.28c.12-2.48.08-4.64-1.69-6.56a17.72 17.72 0 0 0 -6.67-4.05c-6.82-2.69-14.42-3.52-21.66-4.22-19.23-1.88-38.61-1.38-57.9-1.74-8.94-.17-18.16-.2-27-2-1.68-.36-3.46-.65-4.56-2.12a4.29 4.29 0 0 1 4.67-6.66 49.21 49.21 0 0 0 5 .93c10 1.38 20.2 1.33 30.27 1.43 11 .11 22.09.16 33.13.58a221.39 221.39 0 0 1 26.35 2.23c6.38 1 13 2.45 18.69 5.45a21.17 21.17 0 0 1 5.88 4.31 14.59 14.59 0 0 1 3.47 5.8 20.07 20.07 0 0 1 .59 6.82 39 39 0 0 1 -8 22.34c-5.49 7.16-13.25 12.29-21.42 15.93a101.25 101.25 0 0 1 -29.28 7.65 126.21 126.21 0 0 1 -14.54.86c-2.57 0-2.57 4 0 4a124.51 124.51 0 0 0 31.22-4c9.75-2.56 19.4-6.48 27.48-12.6a46.38 46.38 0 0 0 16-20.81 43.51 43.51 0 0 0 2.54-12.72c.26-5-.32-9.76-3.34-13.9-3.72-5.11-9.47-8.08-15.35-10.05-7.36-2.46-15.18-3.51-22.87-4.25-21.84-2.12-43.82-1.22-65.72-2-4.69-.16-9.41-.37-14.07-1-3.86-.52-7.82-2.28-11.47-.05a8.38 8.38 0 0 0 -2.1 12.34c2.56 3.17 7.25 3.53 11 4 10 1.37 20.24 1.4 30.35 1.52s20.22.12 30.33.43a241.58 241.58 0 0 1 27.41 2 74 74 0 0 1 10.82 2.25 32.43 32.43 0 0 1 4 1.44c.56.26 1.11.55 1.65.86.28.16.55.33.82.51s.75.55.47.33a6.7 6.7 0 0 1 1.19 1.13c.63.86.38 2.16.34 3.17a27.2 27.2 0 0 1 -.9 6 26.07 26.07 0 0 1 -5.55 10.41c-6 6.9-14.64 11.06-23.21 13.77a101.22 101.22 0 0 1 -26.42 4.44 79.73 79.73 0 0 1 -20.94-1.45 28.86 28.86 0 0 1 -3.44-1 5.23 5.23 0 0 0 -.5-.19c.24.1-.33-.16-.42-.2-.58-.29-1.12-.65-1.71-.91a8.27 8.27 0 0 0 -10.77 11.34 9.61 9.61 0 0 0 4.52 4.09 43 43 0 0 0 12.26 3.67 99.13 99.13 0 0 0 16.41 1.29c2.57.06 2.57-3.94-.01-3.95z"/><path d="m267.38 416.3a4.34 4.34 0 0 1 -4.28-4.3c0-.43 0-.86 0-1.28v-100.67c0-1.52-.22-3.32.58-4.68a4.33 4.33 0 0 1 7.56.29 5.22 5.22 0 0 1 .43 2.4v90.65 13.25a4.34 4.34 0 0 1 -4.29 4.34c-2.56.07-2.57 4.07 0 4a8.41 8.41 0 0 0 8.25-7.6c.05-.5 0-1 0-1.5v-101.85c0-3-.33-5.86-2.78-8a8.38 8.38 0 0 0 -11.25.22 8.48 8.48 0 0 0 -2.54 6.17v4.92 96.17a30.76 30.76 0 0 0 .11 4.4 8.37 8.37 0 0 0 8.17 7.07c2.66.07 2.66-3.93.04-4z"/><path d="m722.92 372.65h-6.71a4.64 4.64 0 0 1 -3.26-1.08 4.29 4.29 0 0 1 2.31-7.47 21.77 21.77 0 0 1 2.68 0h4.17a5.32 5.32 0 0 1 3.26.76c3.43 2.38 1.61 7.72-2.45 7.81-2.57.05-2.58 4.05 0 4a8.37 8.37 0 0 0 7.46-11.86 8.21 8.21 0 0 0 -6-4.57 26.35 26.35 0 0 0 -4.26-.14c-1.42 0-2.83 0-4.25 0a8.28 8.28 0 0 0 -2.45 16.22 17.82 17.82 0 0 0 5.16.35h4.33c2.58-.02 2.58-4.02.01-4.02z"/><path d="m658.67 372.67c-4.44-.12-6-6.36-1.73-8.21a8.31 8.31 0 0 1 3.48-.36h26c2 0 3.94.65 4.75 2.7a4.35 4.35 0 0 1 -1.56 5.12 4.57 4.57 0 0 1 -2.69.75c-1.74 0-3.49 0-5.24 0h-23c-2.57 0-2.57 4 0 4h24.72c3.49 0 6.93.23 9.6-2.43a8.28 8.28 0 0 0 -4.48-14 36.46 36.46 0 0 0 -5.63-.13h-19c-3.44 0-7.24-.54-10.17 1.66a8.32 8.32 0 0 0 -3 9.16 8.46 8.46 0 0 0 7.89 5.76c2.64.05 2.64-3.95.06-4.02z"/><path d="m575.14 372.83a4.29 4.29 0 0 1 -.68-8.53 20 20 0 0 1 2.9-.05h4q15.07-.06 30.14-.08h14.94c1.58 0 3-.06 4.3 1a4.33 4.33 0 0 1 1.44 4c-.7 4.17-5.34 3.55-8.46 3.55h-15.18c-11.13 0-22.26.1-33.38.1-2.58 0-2.58 4 0 4 11.46 0 22.91-.07 34.37-.1h17.43a9.28 9.28 0 0 0 6.12-1.81 8.28 8.28 0 0 0 -3.58-14.61 42.18 42.18 0 0 0 -7.54-.14h-8.72l-34.62.1c-2.73 0-5.55-.25-7.94 1.32a8.29 8.29 0 0 0 4.48 15.26c2.55.06 2.55-3.94-.02-4.01z"/><path d="m467.28 373.43c-19.44 0-38.89-.34-58.29-1.56a485.93 485.93 0 0 1 -57.8-6.82 339.27 339.27 0 0 1 -56.47-15.31 222.29 222.29 0 0 1 -27.59-11.93c-3-1.6-3.46-6-.23-7.68 1.65-.87 3.17-.43 4.74.35q3.28 1.61 6.61 3.14a301 301 0 0 0 54.85 18.8 413.79 413.79 0 0 0 56.62 9.28c19.14 1.89 38.37 2.71 57.59 3s38.43.08 57.65-.14c10.48-.12 21-.24 31.45-.27h8.15c1.78 0 3.4.19 4.55 1.72a4.33 4.33 0 0 1 -3.44 6.85c-5 .18-10.1 0-15.13 0l-15.72.14c-10.62.11-21.24.25-31.86.33q-7.84.06-15.68.07c-2.58 0-2.58 4 0 4 22.12 0 44.23-.45 66.35-.55h8.12c2.13 0 4.49.28 6.54-.43a8.38 8.38 0 0 0 5.49-9.54c-.84-4.18-4.59-6.58-8.66-6.6-5.53 0-11.07 0-16.61 0-20.73.14-41.47.53-62.2.52-20 0-40-.41-60-1.78a455.39 455.39 0 0 1 -59.2-7.65 313.89 313.89 0 0 1 -57.55-17.22q-7.1-2.93-14-6.27c-2-1-4-2.18-6.24-2.3a8.23 8.23 0 0 0 -5.32 1.72 8.35 8.35 0 0 0 -2.18 10.81 10.19 10.19 0 0 0 4.79 3.87c2.32 1.14 4.67 2.25 7 3.33a314.71 314.71 0 0 0 58.29 19.77 431.52 431.52 0 0 0 59.81 9.46c20.22 1.86 40.53 2.6 60.83 2.81q7.39.09 14.77.08c2.54 0 2.55-4-.03-4z"/><path d="m208.93 590c-3.54-.29-3-3.86-3-6.33l-.07-10.27-.27-38.57-.39-57.27-.49-70.37-.54-77.19-.53-77.76-.5-72.85-.43-61.59-.3-44.15c0-7 0-14-.15-21v-.9c0-2.2-3.44-2.79-3.93-.53l-5 22.94-12.73 58.07-16.87 76.77-17.54 80-14.65 66.86-8.23 37.53c-.22 1-.39 2-.65 3-1 3.65-5.18 3.47-6.06-.21-1-4.11-1.32-8.47-2-12.64l-10.12-64.87-12.4-79.67-7.78-49.83-.38-2.46c-.31-2-3.47-1.86-3.86 0l-3.39 16.08-8.86 42-12.34 58.52-13.91 65.95-13.38 63.38-10.9 51.72-6.47 30.64a40.12 40.12 0 0 1 -1 4.51c-1.4 4.1-6.33 2.38-5.81-1.47.1-.76.32-1.51.47-2.26l5.53-26.14 10-47.47 12.87-61 13.92-66 13.3-63.09 11-52.18 7-33.2c.49-2.32.92-4.66 1.47-7 .49-2 2.1-4.11 4.45-2.86 1.52.82 1.63 2.39 1.86 3.86l5.29 33.89 9.54 61.14 10 64.29 6.76 43.32 1 6.27c.3 2 3.45 1.85 3.85 0l3.47-15.79 9.11-41.6 12.82-58.46 14.72-67.16 14.68-67 12.74-58.13 8.96-40.47 2.42-11c.52-2.34.86-6.78 4.44-5.87 2.6.66 2.26 3.31 2.27 5.31l.06 7.56.21 29.13.3 44.37.39 56.36.44 64.53.48 68.75.48 69.9.46 67.13.42 60.69.34 50.6.26 36.74.13 19.55c0 2.15.29 5.22-3 5.22-2.58 0-2.58 4 0 4 8.42 0 7-9.7 6.93-15.24l-.19-27.89-.3-44.07-.35-56.4-.45-65.3-.48-69.53-.49-71.09-.47-68-.42-61.36-.35-51-.25-36.76-.13-18.76c0-3.76-1.3-7.56-5.58-8.45-5.37-1.12-7.78 3.23-8.72 7.53l-5.89 26.84-10.93 49.9-14 64-15.12 69-14.26 65-11.46 52.1-6.6 30.09-.87 4h3.85l-4-25.37-9.16-58.67-10.37-66.86-7.64-49c-.52-3.32-1-6.66-1.56-10a7 7 0 0 0 -13.8-.4c-1.61 6.47-2.76 13.1-4.14 19.62l-9.23 43.8-12.6 59.73-14.06 66.67-13.82 65.38-11.74 55.79-7.86 37.23-1.92 9.11c-.12.57-.26 1.14-.36 1.71-.84 4.75 2.77 9.47 7.88 8.68 4.51-.75 5.52-4.46 6.3-8.14l2.27-10.74 8.64-41 12.46-59.12 14.07-66.69 13.69-64.91 11.11-52.68 6.51-30.84.87-4.14h-3.86l5.71 36.56 12.23 78.22 11.29 72.41 3.06 19.6c.15 1 .24 2 .46 3a7 7 0 0 0 13.67.28c2.29-8.26 3.7-16.87 5.53-25.24l13.2-60.24 17.24-78.62 17.64-80.71 14.38-65.58 7.38-33.67.34-1.53-3.93-.53.1 14.73.27 39.66.41 59 .49 71.23.54 78.35.53 78.15.51 72.91.41 60.41.29 42.62c.05 6-.13 12 .13 18a7.24 7.24 0 0 0 7 7.25c2.55.22 2.54-3.78-.01-4z"/><path d="m463.43 446.65c-8.09 0-13.63-3.08-13.94-9.72a.38.38 0 0 1 .4-.36h6.19a.45.45 0 0 1 .44.36c.44 3.12 2 5.16 7 5.16 4 0 6.2-1.08 6.2-3.72 0-6.32-19.65-1.32-19.65-12.44 0-5.24 4.48-8.51 12.35-8.51 7.21 0 12.18 2.52 13.1 8.51a.34.34 0 0 1 -.35.36h-6.17a.46.46 0 0 1 -.44-.36c-.35-2.52-2.59-3.92-6.33-3.92-3.16 0-5.45 1-5.45 3.32 0 6 19.74 1.12 19.74 12.2-.04 5.92-5.05 9.12-13.09 9.12z"/><path d="m511.3 446a.37.37 0 0 1 -.39-.36l.26-13.64-.18-9.48h-8.52a.38.38 0 0 1 -.4-.36v-3.8a.38.38 0 0 1 .4-.35h23.82a.38.38 0 0 1 .4.35v3.8a.38.38 0 0 1 -.4.36h-8.48l-.18 9.48.27 13.64a.38.38 0 0 1 -.4.36z"/><path d="m567 446.61c-8.18 0-12.49-3.88-12.49-11v-7.6l-.18-9.64a.38.38 0 0 1 .4-.35h6.2a.38.38 0 0 1 .39.35l-.13 9.48v7.72c0 4 1.76 6.2 5.76 6.2 4.31 0 6.2-2.2 6.2-6.2v-7.57l-.14-9.6a.38.38 0 0 1 .4-.35h5.59a.37.37 0 0 1 .39.35l-.13 9.64v7.6c-.04 7.09-4.13 10.97-12.26 10.97z"/><path d="m608.42 446a.38.38 0 0 1 -.4-.36l.22-13.64-.24-13.63a.37.37 0 0 1 .4-.35h10.85c8.84 0 16.31 4.31 16.31 14.19s-7.56 13.79-16.2 13.79zm6.41-4.52h4.88c5 0 9-2.68 9-9.32s-4-9.64-9.14-9.64h-4.71s-.17 4.72-.17 9.36.14 9.57.14 9.61z"/><path d="m664.38 446a.38.38 0 0 1 -.4-.36l.22-13.64-.2-13.63a.38.38 0 0 1 .4-.35h6a.37.37 0 0 1 .39.35l-.26 13.63.22 13.64a.37.37 0 0 1 -.39.36z"/><path d="m714.67 446.61c-9.41 0-15.52-6-15.52-14.52 0-8.92 6.07-14.67 15.52-14.67s15.56 5.63 15.56 14.67c0 8.56-6.15 14.52-15.56 14.52zm.05-4.68c5.54 0 8.61-3.72 8.61-9.84s-3-10-8.66-10-8.61 3.76-8.61 10c0 6.08 3.12 9.84 8.66 9.84z"/></g></svg>