<svg viewBox="0 0 438.31 358" xmlns="http://www.w3.org/2000/svg"><path d="m146.54 164c15.53 4.17 73.11-3.49 72.18 12.92.11 28-47.27 29.87-56.89 23.9" fill="none" stroke="#1a1a1a" stroke-linecap="round" stroke-linejoin="round" stroke-width="7.542969"/><path d="m161.22 185.31v62.69" fill="none" stroke="#1a1a1a" stroke-linecap="round" stroke-linejoin="round" stroke-width="7.542969"/><path d="m430.27 221.8h4.27" fill="none" stroke="#1a1a1a" stroke-linecap="round" stroke-linejoin="round" stroke-width="7.542969"/><path d="m396 221.82h17.08" fill="none" stroke="#1a1a1a" stroke-linecap="round" stroke-linejoin="round" stroke-width="7.542969"/><path d="m345.87 221.91q15.84-.06 31.67-.08" fill="none" stroke="#1a1a1a" stroke-linecap="round" stroke-linejoin="round" stroke-width="7.542969"/><path d="m162.13 201.13c52 25.84 110.11 20.67 166.06 20.8" fill="none" stroke="#1a1a1a" stroke-linecap="round" stroke-linejoin="round" stroke-width="7.542969"/><g fill="#1a1a1a"><path d="m126.14 356a3 3 0 0 1 -3-3l-2.2-321.19-45.45 207.34a3 3 0 0 1 -5.88-.19l-19.61-125.83-42.14 199.69a3 3 0 1 1 -5.86-1.26l45.5-215.66a3 3 0 0 1 3-2.39 3 3 0 0 1 2.88 2.55l19.69 126.19 47.76-217.89a3 3 0 0 1 5.91.63l2.4 348a3 3 0 0 1 -3 3z"/><path d="m146 165.92a58 58 0 0 0 12.47 1.38c5.67.23 11.35.22 17 .28 6 0 12 .14 18 .52a74.36 74.36 0 0 1 15.09 2.12c1 .26 1.92.56 2.86.91a14.64 14.64 0 0 1 2.22 1.06c.35.2.68.43 1 .65s0 0 .15.12a6 6 0 0 1 .47.41c.23.22.45.47.67.72-.36-.42 0 0 .06.1s.22.36.32.54.27.62.06.08a4.28 4.28 0 0 1 .17.46l.12.49c.11.37.05.37 0 .16a21.52 21.52 0 0 1 -.08 3.21 19 19 0 0 1 -1.9 6.58c-4.56 8.86-15.15 12.85-24.66 14.68a68.27 68.27 0 0 1 -14.9 1.15 32.38 32.38 0 0 1 -11-1.78c-.06 0-.61-.25-.29-.11s-.19-.09-.25-.12c-.27-.14-.55-.29-.81-.45-2.2-1.34-4.22 2.11-2 3.46 3.15 1.92 7.19 2.43 10.78 2.78a67 67 0 0 0 15.18-.39c10.65-1.4 22.48-5 29.29-13.92a23 23 0 0 0 4.65-14.7c-.12-3.84-2.9-6.59-6.2-8.16-4.47-2.14-9.5-2.9-14.38-3.47-6-.69-12-.9-18-1s-12.24-.11-18.35-.22c-2.72 0-5.44-.12-8.15-.28-1.15-.07-2.29-.15-3.43-.26l-1.47-.17a1.73 1.73 0 0 1 -.34 0l-.82-.12c-.83-.14-1.66-.3-2.47-.52-2.49-.66-3.56 3.2-1.07 3.86z"/><path d="m159.22 185.31v62.69c0 2.57 4 2.58 4 0v-62.69c0-2.58-4-2.58-4 0z"/><path d="m430.27 223.8h4.27a2 2 0 0 0 2-2 2 2 0 0 0 -2-2h-4.27a2 2 0 0 0 -1.42.59 2 2 0 0 0 -.58 1.41 2 2 0 0 0 2 2z"/><path d="m396 223.82h17.08c2.57 0 2.58-4 0-4h-17.08c-2.57 0-2.58 4 0 4z"/><path d="m345.87 223.91q15.84-.06 31.67-.08c2.58 0 2.58-4 0-4q-15.84 0-31.67.08c-2.58 0-2.58 4 0 4z"/><path d="m161.13 202.86c20 9.91 41.64 15.56 63.71 18.45s44.12 3.09 66.21 2.92c12.38-.1 24.76-.32 37.14-.3 2.57 0 2.57-4 0-4-21.92 0-43.83.7-65.74.12-21.68-.58-43.42-2.47-64.47-7.86a177.87 177.87 0 0 1 -34.84-12.78c-2.3-1.14-4.32 2.31-2 3.45z"/><path d="m126.14 354c-1.33-.11-1-2.07-1-3v-6.16l-.15-23.14-.24-34.36-.29-42.22-.32-46.34-.32-46.66-.3-43.71-.26-36.95-.26-26.46c0-4.2 0-8.41-.09-12.61v-.54c0-2.2-3.43-2.79-3.93-.53l-2.98 13.68-7.64 34.85-10.1 46.15-10.53 48-8.79 40.1-4.94 22.52c-.13.59-.21 1.22-.39 1.79-.44 1.38-1.74 1.34-2.09-.13-.59-2.47-.79-5.08-1.18-7.58l-6.08-38.92-7.45-47.78-4.67-29.91-.23-1.47c-.31-2-3.47-1.86-3.86 0l-2 9.65-5.35 25.17-7.4 35.12-8.3 39.57-8 38-6.55 31-3.95 18.46a20.91 20.91 0 0 1 -.57 2.7c-.54 1.53-2.1.79-1.94-.46 0-.45.19-.91.28-1.35l3.31-15.7 6-28.48 7.73-36.62 8.35-39.58 8-37.86 6.6-31.3 4.2-19.94c.29-1.39.55-2.8.88-4.18.17-.72.53-1.69 1.49-1.24.63.29.66 1.22.75 1.84l3.17 20.33 5.73 36.68 6 38.58 4.06 26 .59 3.76c.3 2 3.45 1.85 3.85 0l2.08-9.47 5.47-25 7.69-35.08 8.84-40.22 8.81-40.19 7.65-34.87 5.32-24.29 1.46-6.65c.19-.86.35-3.27 1.68-3 1 .23.77 1.65.77 2.41v4.58l.12 17.47.19 26.63.23 33.82.27 38.71.28 41.25.29 41.94.28 40.28.25 36.41.21 30.37.15 22 .08 11.73c0 .8.24 2.33-1 2.33-2.57 0-2.57 4 0 4 5.77 0 5-6.11 5-9.94l-.1-16.68-.18-26.44-.25-33.87-.27-39.19-.3-41.7-.3-42.65-.28-40.79-.25-36.82-.17-30.58-.15-22.05-.1-11.22c0-2.62-1-5.2-3.93-5.84a5.05 5.05 0 0 0 -5.95 3.84c-.11.4-.18.82-.27 1.23l-3.53 16.1-6.56 29.94-8.42 38.37-9.09 41.36-8.55 39-6.85 31.24-4 18-.52 2.4h3.92l-2.38-15.14-5.49-35.21-6.26-40.11-4.59-29.4c-.31-2-.57-4-.93-6a5 5 0 0 0 -9.82-.24c-1 3.88-1.66 7.86-2.49 11.77l-5.54 26.28-7.56 35.84-8.43 40-8.28 39.23-7.06 33.47-4.71 22.34-1.15 5.47c-.08.34-.16.68-.22 1-.61 3.44 2 6.82 5.71 6.15 3-.53 3.81-2.95 4.34-5.44l1.36-6.44 5.19-24.59 7.47-35.43 8.44-40 8.22-38.95 6.66-31.6 3.91-18.5.52-2.49h-3.86l3.43 21.94 7.32 46.91 6.77 43.5 1.84 11.75c.09.59.14 1.2.27 1.78a5 5 0 0 0 9.75.17c1.37-5 2.22-10.13 3.32-15.15l7.92-36.15 10.33-47.21 10.6-48.38 8.63-39.35 4.43-20.2.2-.92-3.93-.53.06 8.84.17 23.8.24 35.37.29 42.74.33 47 .32 46.89.3 43.74.25 36.25.18 25.57c0 3.6-.09 7.23.07 10.82a5.16 5.16 0 0 0 5 5.15c2.57.22 2.56-3.78 0-3.98z"/></g></svg>